<svg width="2499" height="917" viewBox="0 0 2499 917" fill="none" xmlns="http://www.w3.org/2000/svg">
<path d="M0 339.518L111.317 527.829L155.844 485.158L34.3228 304.267L0 339.518Z" fill="url(#paint0_linear_5811_184)"/>
<path d="M1656.77 191.095L1652.13 216.141L1705.01 198.516L1698.52 167.904L1656.77 191.095Z" fill="#0071B9"/>
<path d="M1345.08 21.3358L1173.47 217.996L1223.56 204.082L1386.83 0L1345.08 21.3358Z" fill="url(#paint1_linear_5811_184)"/>
<path d="M2264.38 290.352L2306.12 268.089L2294.06 373.84L2264.38 290.352Z" fill="#1D2C5E"/>
<path d="M2001.86 358.07L2039.89 366.419L2087.2 343.228L2045.45 327.458L2001.86 358.07Z" fill="#1D2C5E"/>
<path d="M710.575 246.753L716.141 368.275L769.017 347.866L753.247 223.562L710.575 246.753Z" fill="url(#paint2_linear_5811_184)"/>
<path d="M2042.67 209.647L2000.93 232.839L2001.86 358.07L2044.53 336.735L2057.51 275.51L2042.67 209.647Z" fill="url(#paint3_linear_5811_184)"/>
<path d="M2037.11 366.419L1990.72 778.293L2064.94 763.451L2078.85 344.156L2037.11 366.419Z" fill="#312370"/>
<path d="M2127.09 797.774L2128.94 853.432L2270.87 898.887L2313.54 876.623L2173.47 768.089L2032.47 756.03L1990.72 778.293L2127.09 797.774Z" fill="#21386E"/>
<path d="M1600.19 699.443L1634.51 680.891L1657.7 721.707L1690.17 704.082L1696.66 757.885L1903.53 794.991L1944.34 771.8L1659.55 598.33L1457.33 632.653L1418.37 670.686L1600.19 699.443Z" fill="#21386E"/>
<path d="M1534.32 192.95L1492.58 216.141L1418.37 670.686L1460.11 648.423L1531.54 393.321L1534.32 192.95Z" fill="url(#paint4_linear_5811_184)"/>
<path d="M1204.08 254.174L1170.69 271.8L1173.47 282.931L1252.32 232.839L1218 195.733L1173.47 217.996L1204.08 254.174Z" fill="#1D2C5E"/>
<path d="M1294.06 791.28L957.328 624.304L999.072 591.837L1335.81 768.089L1294.06 791.28Z" fill="#21386E"/>
<path d="M988.868 169.759L937.848 266.234L991.651 250.464L1030.61 146.568L988.868 169.759Z" fill="#1D2C5E"/>
<path d="M525.046 569.573L482.375 599.258C482.375 599.258 491.651 647.495 503.711 680.891C515.77 714.286 543.599 741.187 543.599 741.187C562.152 758.813 583.488 771.8 608.534 779.221C655.844 793.135 709.647 783.859 756.03 754.174C768.089 746.753 784.787 734.694 794.991 724.49C749.536 752.319 525.046 569.573 525.046 569.573Z" fill="url(#paint5_linear_5811_184)"/>
<path d="M756.03 358.998L794.991 792.208L956.401 769.017L999.072 746.753L799.629 333.024L758.813 346.939L716.141 368.275L756.03 358.998Z" fill="#1D2C5E"/>
<path d="M153.061 509.276L333.024 916.512L503.711 861.781L545.455 833.952L191.095 462.894L146.568 489.796L111.317 527.829L153.061 509.276Z" fill="url(#paint6_linear_5811_184)"/>
<path d="M1933.21 701.299L1935.99 721.707C1950.83 719.852 1965.68 717.996 1979.59 713.358C1995.36 707.792 2028.76 692.95 2040.82 681.818C2035.25 683.673 1957.33 704.082 1933.21 701.299Z" fill="#1D2C5E"/>
<path d="M1329.31 597.403L1335.81 629.87C1370.13 624.304 1399.81 612.245 1429.5 594.62C1448.05 583.488 1467.53 567.718 1474.03 563.08C1469.39 565.863 1329.31 597.403 1329.31 597.403Z" fill="#1D2C5E"/>
<path d="M379.861 877.681L366.874 847.996L196.187 467.662L192.477 460.241L179.49 466.735L148.878 481.577C144.239 474.156 136.818 461.169 132.18 452.82L63.5343 336.865L45.9091 306.252L75.5937 287.699C103.423 270.074 134.963 253.377 170.213 238.534C238.859 209.777 308.432 194.007 372.44 194.007C393.775 194.007 414.184 195.863 432.737 198.646C464.276 202.356 493.961 212.56 518.08 229.258C554.258 249.666 583.015 281.206 598.785 318.312C611.772 348.924 614.555 385.102 606.206 422.208L601.568 444.471L620.121 431.484C632.18 422.208 645.167 414.787 659.082 409.221C683.2 399.017 708.247 393.451 733.293 393.451C757.412 393.451 779.675 398.089 800.083 407.365L813.07 412.931L812.143 398.089L806.577 335.937L805.649 325.733L796.373 328.516L767.616 335.937L762.978 230.186L974.48 162.468L972.625 245.028L988.395 248.738L1034.78 160.612L1173 283.061L1178.56 288.627L1184.13 283.061C1202.68 265.436 1225.87 250.594 1250.92 240.39L1261.12 235.751L1253.7 226.475L1228.65 195.863L1387.28 13.1169L1470.77 137.421L1343.68 206.067L1315.85 220.909L1348.32 221.837C1408.62 222.764 1462.42 248.738 1498.6 293.265L1511.59 309.963L1519.94 320.167L1506.02 335.009L1496.74 345.213L1465.2 379.536L1459.64 386.03L1466.13 391.596L1495.82 418.497L1506.95 428.701L1509.73 413.859L1520.86 343.358L1526.43 306.252L1543.13 201.429H1700.83L1701.75 194.007L1704.54 176.382H1841.83L1875.22 386.03L1877.08 399.944L1888.21 391.596C1902.12 381.391 1916.97 373.97 1932.74 367.477C1954.07 359.128 1975.41 355.417 1997.67 355.417C2023.65 355.417 2048.69 360.983 2070.03 373.043C2070.96 373.043 2070.96 373.97 2072.81 374.898L2083.01 378.609L2083.94 367.477L2086.73 344.286L2087.65 336.865L2080.23 335.009L2052.4 328.516L2051.48 219.054L2263.91 265.436L2279.68 344.286H2296.37L2313.07 276.568L2490.25 319.239L2308.43 865.622L2179.49 824.805L2178.56 774.712V767.291L2171.14 766.364L2042.2 747.811L2049.62 681.948L2051.48 666.178L2037.56 673.599C2031.07 677.31 2024.57 680.093 2018.08 681.948C1996.74 690.297 1975.41 694.007 1954.07 694.007C1947.58 694.007 1942.01 694.007 1935.52 693.08L1924.39 692.152L1926.24 703.284L1935.52 760.798L1747.21 727.403L1737 642.059L1734.22 614.23L1721.23 638.349L1699.9 680.093L1660.01 606.809L1647.95 584.545L1635.89 666.178L1470.77 640.204L1483.76 562.282L1486.54 544.657L1470.77 553.933C1443.87 569.703 1412.33 582.69 1376.15 591.039C1363.16 593.822 1350.18 596.605 1336.26 597.532L1328.84 598.46V754.304L1004.17 593.822L992.106 588.256V739.462L846.466 760.798L839.972 694.935L838.117 677.31L825.13 689.369C805.649 707.922 784.314 722.764 761.122 732.968C737.004 743.173 711.957 748.738 687.839 748.738C662.792 748.738 639.601 743.173 618.265 733.896C579.304 715.343 550.547 681.02 538.488 637.421C532.922 617.013 531.067 595.677 533.85 573.414L536.633 550.223L519.935 566.92C507.876 578.052 494.889 589.184 480.974 599.388L476.336 603.098L478.191 608.664L527.356 796.048L535.705 829.443L503.237 839.647L411.401 869.332L379.861 877.681ZM420.677 373.97C416.039 373.97 411.401 373.97 405.835 374.898L399.341 375.826L390.065 377.681L392.848 386.957L394.703 392.523L420.677 478.794L423.46 487.143L427.171 499.202L436.447 490.853L442.941 485.288C468.915 462.096 477.263 438.905 471.698 409.221C467.987 391.596 455 383.247 446.651 379.536C441.085 375.826 430.881 373.97 420.677 373.97ZM1127.54 376.753L1110.84 392.523L1067.24 434.267L1057.97 443.544L1070.03 448.182L1116.41 465.807L1130.32 471.373L1127.54 456.531C1123.83 437.05 1122.9 417.57 1124.76 399.017L1127.54 376.753ZM1316.78 328.516C1299.16 328.516 1281.53 335.937 1269.47 349.852C1250.92 370.26 1247.21 400.872 1260.19 424.991L1263.91 431.484L1269.47 441.688L1277.82 432.412L1283.39 426.846L1347.39 354.49L1352.03 348.924L1360.38 339.647L1349.25 335.009L1341.83 332.226C1332.55 330.371 1325.13 328.516 1316.78 328.516Z" fill="#FFCB05"/>
<path d="M1413.73 435.993L1411.87 437.848C1412.8 437.848 1413.73 436.92 1413.73 435.993Z" fill="#7D7F68"/>
<path d="M1469.39 385.9L1500.93 351.577L1489.8 362.709V361.781L1480.52 371.985L1448.98 405.38L1478.66 432.282L1484.23 398.887L1499.07 411.874L1469.39 385.9Z" fill="#7D7F68"/>
<path d="M1469.39 385.9L1499.07 411.874L1510.2 341.373L1500.93 351.577L1469.39 385.9Z" fill="#7D7F68"/>
<path d="M1249.54 470.315C1252.32 473.098 1249.54 471.243 1252.32 473.098L1271.8 459.184C1269.02 457.328 1266.23 454.545 1263.45 452.69C1235.62 426.716 1243.04 369.202 1260.67 337.662C1212.43 376.623 1215.21 435.993 1249.54 470.315Z" fill="#C7A008"/>
<path d="M1484.23 502.783C1451.76 529.685 1415.58 546.382 1367.35 558.442C1357.14 561.224 1346.01 563.08 1336.73 563.08C1259.74 570.501 1195.73 535.25 1171.61 478.664C1168.83 472.171 1166.05 464.75 1164.19 457.328C1153.06 409.091 1162.34 366.419 1186.46 332.096C1189.24 328.386 1191.09 325.603 1193.88 322.82C1192.95 323.748 1191.09 324.675 1190.17 325.603C1180.89 333.952 1172.54 342.301 1166.05 352.505C1141.93 385.9 1132.65 429.499 1143.78 477.737C1145.64 485.158 1147.5 492.579 1151.21 499.072C1175.32 556.586 1240.26 591.837 1316.33 584.416C1326.53 583.488 1336.73 581.633 1347.87 578.85C1396.1 566.79 1433.21 550.093 1464.75 523.191C1472.17 516.698 1480.52 509.276 1487.94 501.855L1487.01 500.928C1485.16 501.855 1484.23 501.855 1484.23 502.783Z" fill="#C7A008"/>
<path d="M943.414 357.143L1028.76 236.549L1025.05 233.766L942.486 349.722L943.414 357.143Z" fill="#C7A008"/>
<path d="M1510.2 341.373L1499.07 411.874L1484.23 398.887L1478.66 432.282L1448.98 405.38L1480.52 371.985L1489.8 361.781V362.709L1500.93 351.577L1510.2 341.373Z" fill="#C7A008"/>
<path d="M1404.45 142.857L1434.14 129.87L1379.41 59.3692L1361.78 85.3432L1404.45 142.857Z" fill="#C7A008"/>
<path d="M573.284 317.254C434.137 148.423 184.601 239.332 95.5473 318.182L99.2579 324.675C119.666 312.616 141.93 302.412 164.193 292.208C253.247 254.174 338.59 243.043 406.308 255.102C430.427 257.885 455.473 265.306 477.737 280.148C508.349 297.774 531.54 321.892 545.455 353.432C569.573 409.091 548.237 483.302 491.651 544.527C563.08 478.664 612.245 415.584 573.284 317.254Z" fill="#C7A008"/>
<path d="M856.215 513.915C855.288 511.132 855.288 507.421 854.36 504.638C846.939 476.809 830.241 454.545 807.978 439.703C772.727 415.584 722.634 410.946 673.469 431.354C647.495 442.486 625.232 460.111 606.679 480.519C620.594 468.46 636.364 459.184 653.061 451.763C702.226 430.427 752.319 435.993 787.57 460.111C809.833 474.954 826.531 497.217 833.952 525.046C834.879 527.829 835.807 531.54 835.807 534.323C837.662 545.455 838.59 555.659 838.59 566.79C837.662 599.258 825.603 631.725 806.122 659.555C803.34 664.193 799.629 667.904 795.918 672.542C807.05 662.338 817.254 652.134 825.603 640.074C846.011 612.245 857.143 579.777 858.998 547.31C858.998 536.178 858.071 525.046 856.215 513.915Z" fill="#C7A008"/>
<path d="M719.852 473.098C719.852 473.098 740.26 452.69 739.332 452.69C714.286 451.763 703.154 475.881 702.226 477.737C707.792 474.954 713.358 474.026 719.852 473.098Z" fill="#C7A008"/>
<path d="M767.161 501.855C768.089 505.566 769.017 508.349 769.017 512.059C769.017 517.625 768.089 522.263 765.306 526.902C769.017 525.046 798.701 510.204 787.57 480.519C788.497 482.375 766.234 501.855 767.161 501.855Z" fill="#C7A008"/>
<path d="M652.134 519.481C652.134 507.421 673.469 476.809 679.963 466.605C646.568 487.941 631.725 516.698 631.725 538.961C631.725 577.922 666.048 609.462 706.865 609.462C726.345 609.462 761.596 599.258 784.787 562.152C772.727 570.501 742.115 589.054 725.417 589.054C684.601 589.054 652.134 558.442 652.134 519.481Z" fill="#C7A008"/>
<path d="M938.776 554.731L939.703 711.503L964.75 713.358L959.184 534.323L938.776 554.731Z" fill="#C7A008"/>
<path d="M795.918 255.102V269.017L914.657 233.766L923.006 384.972L943.414 357.143L938.775 205.937L795.918 255.102Z" fill="#C7A008"/>
<path d="M1153.06 308.905L1042.67 206.865L1028.76 236.549L1127.09 328.386L1153.06 308.905Z" fill="#C7A008"/>
<path d="M1136.36 499.072L1005.57 455.473L987.013 475.881L1116.88 527.829C1131.73 555.659 1153.99 579.777 1181.82 596.475C1208.72 613.173 1240.26 623.377 1272.73 626.16V690.167L1293.14 700.371L1299.63 603.896L1136.36 499.072Z" fill="#C7A008"/>
<path d="M1346.01 481.447C1378.48 474.026 1396.1 457.328 1412.8 438.775C1400.74 448.98 1341.37 461.967 1331.17 464.75L1311.69 486.085C1320.04 486.085 1334.88 484.23 1346.01 481.447Z" fill="#C7A008"/>
<path d="M1287.57 258.813C1228.2 266.234 1197.59 316.327 1192.95 321.892C1215.21 303.34 1242.11 289.425 1272.73 282.931C1346.01 265.306 1410.02 287.57 1449.91 336.735L1474.95 316.327C1435.06 268.089 1360.85 241.187 1287.57 258.813Z" fill="#C7A008"/>
<path d="M1486.09 500.928C1493.51 495.362 1505.57 488.868 1512.99 481.447L1434.14 410.946C1427.64 418.367 1423.01 430.427 1415.58 435.993L1486.09 500.928Z" fill="#C7A008"/>
<path d="M1891.47 690.167C1808.91 621.521 1813.54 475.881 1854.36 429.499L1818.18 200.371L1738.4 210.575L1734.69 230.983H1794.99L1827.46 438.776C1786.64 485.158 1767.16 547.31 1780.15 604.824C1790.35 649.351 1818.18 684.601 1857.14 705.009C1860.85 706.865 1865.49 708.72 1869.2 710.575L1870.13 713.358L1894.25 717.069C1893.32 717.996 1896.1 692.022 1891.47 690.167Z" fill="#C7A008"/>
<path d="M1573.28 233.766L1569.57 254.174H1660.48L1687.38 401.67L1707.79 381.262L1686.46 225.417L1573.28 233.766Z" fill="#C7A008"/>
<path d="M1729.13 519.481L1699.44 595.547L1706.86 615.956L1748.61 500L1729.13 519.481Z" fill="#C7A008"/>
<path d="M1641.93 472.171L1621.52 492.579L1599.26 629.87L1620.59 637.291L1641.93 472.171Z" fill="#C7A008"/>
<path d="M2051.02 427.644C2063.08 435.993 2073.28 447.124 2080.71 460.111C2087.2 470.315 2090.91 480.519 2094.62 493.507C2104.82 535.25 2092.76 579.777 2066.79 615.028C2064.01 618.738 2061.22 622.449 2058.44 625.232C2068.65 615.955 2198.52 520.408 2072.36 395.176C1933.21 349.722 1880.33 439.703 1875.7 446.197C1890.54 434.137 1907.24 423.006 1925.79 416.512C1972.17 397.959 2018.55 404.453 2051.02 427.644Z" fill="#C7A008"/>
<path d="M1981.45 436.92C1981.45 437.848 2001.86 416.512 2001.86 416.512C1976.81 417.44 1964.75 429.499 1966.6 435.065C1964.75 436.92 1963.82 439.703 1962.89 441.558C1967.53 438.775 1977.74 436.92 1981.45 436.92Z" fill="#C7A008"/>
<path d="M2027.83 468.46C2028.76 472.171 2028.76 474.954 2028.76 478.664C2028.76 483.302 2026.9 487.941 2025.05 491.651C2028.76 489.796 2058.44 480.519 2047.31 447.124C2048.24 448.98 2026.9 468.46 2027.83 468.46Z" fill="#C7A008"/>
<path d="M1961.97 573.284C1989.8 574.212 2021.34 557.514 2043.6 526.902C1987.01 538.961 1926.72 443.414 1932.28 434.137C1910.95 449.907 1891.47 479.592 1890.54 500.928C1888.68 539.889 1921.15 571.429 1961.97 573.284Z" fill="#C7A008"/>
<path d="M2274.58 820.965L2287.57 829.314L2450.83 339.518L2328.39 311.688L2327.46 340.445L2425.79 361.781L2274.58 820.965Z" fill="#C7A008"/>
<path d="M2080.71 258.813L2081.63 286.642L2211.5 312.616L2261.6 550.093L2282 529.685L2233.77 289.425L2080.71 258.813Z" fill="#C7A008"/>
<path d="M2180.89 529.685L2144.71 731.911L2165.12 738.404L2201.3 509.276L2180.89 529.685Z" fill="#C7A008"/>
<path d="M495.362 806.122L435.065 585.343L412.801 601.113L469.388 811.688L495.362 806.122Z" fill="#C7A008"/>
<path d="M479.592 474.954C465.677 489.796 434.137 518.553 416.512 529.685L405.38 495.362L382.189 419.295L367.347 368.275L352.505 386.827L367.347 437.848L390.538 512.987L401.67 547.31C426.716 533.395 461.967 503.711 479.592 474.954Z" fill="#C7A008"/>
<path d="M1340.45 344.156C1320.96 336.735 1294.06 338.59 1279.22 355.288C1275.51 358.998 1269.02 368.275 1267.16 372.913C1281.08 361.781 1307.05 358.998 1322.82 365.492L1340.45 344.156Z" fill="#7D7F68"/>
<path d="M462.894 412.801C461.039 401.67 449.907 392.393 444.341 389.61C435.065 384.972 417.44 384.045 405.38 386.827C407.236 394.249 410.019 403.525 410.946 407.236C415.584 408.163 423.933 409.091 428.571 410.946C434.137 413.729 443.414 419.295 445.269 431.354C448.052 446.197 447.124 461.039 440.631 472.171C458.256 455.473 466.605 436.92 462.894 412.801Z" fill="#7D7F68"/>
<path d="M493.033 412.004C484.685 367.477 426.243 342.43 367.801 373.97L382.644 424.991L405.835 501.058L416.967 535.38C460.566 508.479 504.165 474.156 493.033 412.004ZM435.52 481.577C429.026 461.169 415.111 416.642 415.111 416.642C415.111 416.642 412.328 407.366 408.618 396.234C420.677 394.379 432.737 395.306 442.013 399.944C447.579 402.727 456.855 408.293 458.711 420.353C464.276 444.471 455.928 463.024 435.52 481.577Z" fill="#3C5AA6"/>
<path d="M1370.58 341.503C1338.12 311.818 1288.02 313.673 1258.34 346.141C1228.65 378.609 1230.51 428.701 1262.98 458.386C1265.76 461.169 1268.54 463.024 1271.33 464.879L1376.15 346.141C1374.3 345.213 1372.44 343.358 1370.58 341.503ZM1272.25 424.991C1262.05 406.438 1263.91 382.319 1279.68 365.621C1294.52 349.852 1316.78 345.213 1336.26 352.634L1272.25 424.991Z" fill="#3567B0"/>
<path d="M1510.2 328.386L1452.69 384.045L1507.42 433.21L1510.2 328.386Z" fill="#1E2D5F"/>
<path d="M2047.31 448.052C2048.24 451.763 2048.24 455.473 2048.24 459.184C2047.31 481.447 2026.9 498.145 2001.86 497.217C1976.81 496.289 1957.33 477.737 1958.26 455.473C1959.18 435.065 1977.74 418.367 2000 417.44C1995.36 416.512 1990.72 415.584 1986.09 415.584C1944.34 413.729 1910.95 443.414 1909.09 479.592C1907.24 518.553 1938.78 551.02 1979.59 551.948C2021.34 553.803 2054.73 524.119 2056.59 485.158C2059.37 472.171 2054.73 459.184 2047.31 448.052Z" fill="#3466AF"/>
<path d="M789.425 492.579C789.425 514.842 769.017 532.468 744.898 532.468C719.852 532.468 700.371 514.842 700.371 492.579C700.371 472.171 717.996 454.545 741.187 452.69C736.549 451.763 731.911 451.763 727.273 451.763C685.529 451.763 653.061 482.375 653.061 519.481C653.061 558.442 685.529 589.054 726.345 589.054C768.089 589.054 800.557 558.442 800.557 519.481C800.557 505.566 795.918 493.506 788.497 482.375C788.497 485.158 789.425 488.868 789.425 492.579Z" fill="url(#paint7_linear_5811_184)"/>
<path d="M2305.65 268.219L2287.1 344.286L2270.4 259.87L2042.2 209.777L2044.05 336.865L2078.38 344.286L2075.59 367.477C2075.59 367.477 2074.67 367.477 2074.67 366.549C2031.99 344.286 1979.12 341.503 1929.95 360.983C1913.26 367.477 1897.49 375.826 1883.57 386.03L1849.25 168.961H1698.04L1694.33 194.007H1534.78L1516.22 305.325L1503.24 288.627C1464.28 241.317 1408.62 215.343 1346.47 213.488L1481.9 141.132L1387.28 0.12987L1216.6 196.79L1246.28 232.968C1219.38 244.1 1196.19 258.942 1176.71 277.495L1030.14 147.625L979.119 245.028L980.974 150.408L751.846 223.692L758.339 346.141L797.301 335.937L802.866 398.089C758.34 377.681 704.536 378.609 655.371 399.944C640.529 406.438 626.614 413.859 614.555 423.135C622.903 385.102 621.048 347.996 606.206 314.601C589.508 275.64 558.896 242.245 522.718 221.837C496.744 204.212 466.132 194.007 433.664 190.297C354.814 176.382 259.267 190.297 165.575 230.186C131.252 245.028 98.7848 261.725 70.0278 280.278L33.8497 303.469L56.1132 340.575L124.759 457.458L146.095 492.709L188.766 471.373L359.453 851.707L376.15 887.885L414.184 875.826L506.02 846.141L546.837 833.154L536.633 792.338L487.468 604.954C501.382 594.75 514.369 583.618 526.429 571.558C523.646 593.822 525.501 617.013 531.067 638.349C544.054 683.803 573.738 719.981 615.482 739.462C660.009 760.798 714.74 760.798 764.833 739.462C789.879 728.33 813.07 713.488 831.623 694.007L838.117 769.147L999.527 745.028V600.315L1336.26 767.291V606.809C1350.18 605.881 1363.16 603.098 1377.08 600.315C1414.18 591.039 1445.72 578.98 1474.48 562.282L1460.57 648.553L1642.38 677.31L1652.59 611.447L1699.9 699.573L1728.65 643.915L1738.86 735.751L1944.8 771.93L1933.66 702.356C1961.49 705.139 1991.18 701.429 2019.93 691.224C2026.43 688.442 2033.85 685.659 2039.42 681.948L2031.07 756.16L2168.36 775.64L2169.29 832.226L2312.14 876.753L2498.6 315.529L2305.65 268.219ZM1500.45 351.707L1509.73 341.503L1498.6 412.004L1468.91 385.102L1500.45 351.707ZM1379.86 62.282L1429.95 130L1287.1 200.501L1276.89 185.659C1276.89 186.586 1379.86 62.282 1379.86 62.282ZM434.592 585.473L491.178 804.397L399.341 834.082L210.102 411.076C199.898 416.642 180.417 425.918 163.72 434.267L95.0742 318.312C121.976 300.686 152.588 285.844 184.128 271.93C273.182 233.896 358.525 222.764 426.243 234.824C450.362 237.607 475.408 245.028 497.672 259.87C528.284 277.495 551.475 301.614 565.39 333.154C598.785 409.221 544.054 518.683 434.592 585.473ZM858.525 546.512C857.597 578.98 845.538 611.447 825.13 639.276C805.649 666.178 779.675 687.514 748.135 701.429C668.358 735.751 588.581 701.429 567.245 625.362C546.837 552.078 595.074 464.879 672.069 431.484C721.234 410.148 771.327 415.714 806.577 439.833C828.84 454.675 845.538 476.939 852.959 504.768C853.887 507.551 854.814 511.262 854.814 514.044C858.525 525.176 858.525 536.308 858.525 546.512ZM1293.59 701.429L958.711 534.453L959.638 709.777L873.367 721.837L866.874 649.481C893.776 604.026 903.052 549.295 889.137 500.13C881.716 473.228 867.802 449.109 848.321 430.557L836.262 283.061L797.301 293.265L795.445 256.16L934.592 214.416L942.941 357.273L1044.98 213.488L1146.09 309.035L1006.02 456.531L1137.75 508.479C1152.59 536.308 1174.85 559.499 1202.68 577.124C1229.58 593.822 1261.12 604.026 1293.59 606.809V701.429ZM1120.12 458.386L1073.74 440.761L1117.34 399.017C1114.55 418.497 1115.48 437.978 1120.12 458.386ZM1483.76 502.913C1451.29 529.814 1415.11 546.512 1366.87 558.571C1356.67 561.354 1345.54 563.21 1336.26 563.21C1259.27 570.631 1195.26 535.38 1171.14 478.794C1168.36 472.301 1165.58 464.879 1163.72 457.458C1152.59 409.221 1161.86 366.549 1185.98 332.226C1192.48 322.022 1200.83 313.673 1210.1 305.325C1232.37 284.916 1261.12 271.002 1293.59 262.653C1366.87 245.028 1430.88 267.291 1470.77 315.529L1331.62 463.952C1340.9 465.807 1355.74 463.024 1366.87 460.241C1400.27 451.892 1418.82 434.267 1434.59 415.714L1490.25 465.807L1506.95 480.649C1499.53 488.998 1492.11 496.419 1483.76 502.913ZM1779.68 700.501L1749.06 500.13L1706.39 610.52L1642.38 472.301H1641.46L1616.41 632.783L1509.73 614.23L1524.57 525.176C1528.28 521.466 1532.92 517.755 1536.63 513.117L1570.96 477.866L1537.56 447.254L1573.74 233.896H1681.34L1708.25 381.391L1738.86 210.705H1815.85L1848.32 418.497C1807.5 464.879 1788.02 527.031 1801.01 584.545C1811.22 629.072 1839.04 664.323 1878.01 685.659C1881.72 687.514 1886.35 689.369 1890.06 691.224L1893.78 718.126L1779.68 700.501ZM2045.91 634.638C2033.85 642.987 2020.86 650.408 2006.95 655.046C1979.12 665.251 1952.22 668.033 1927.17 662.468C1910.47 658.757 1894.7 652.263 1880.79 642.987C1859.45 627.217 1843.68 604.954 1836.26 576.197C1827.91 541.874 1835.33 504.768 1853.89 472.301C1863.16 456.531 1875.22 441.688 1889.14 428.701C1904.91 414.787 1923.46 402.727 1942.94 395.306C1990.25 377.681 2036.63 384.174 2069.1 407.365C2081.16 415.714 2091.36 426.846 2098.78 439.833C2104.35 450.037 2108.99 461.169 2111.77 473.228C2121.98 514.972 2109.92 559.499 2083.94 594.75C2075.59 610.52 2061.68 623.507 2045.91 634.638ZM2287.1 823.878L2208.25 800.686L2201.75 509.406L2161.86 733.896L2075.59 719.982L2082.09 655.046C2138.67 607.737 2168.36 532.597 2151.66 463.952C2144.24 434.267 2129.4 407.365 2107.13 387.885L2114.55 311.818L2082.09 303.469L2083.01 262.653L2231.44 292.338L2281.53 528.887L2332.55 316.456L2445.72 341.503L2287.1 823.878Z" fill="url(#paint8_linear_5811_184)"/>
<path d="M2393.32 791.28H2397.03C2401.67 791.28 2405.38 789.425 2405.38 784.787C2405.38 782.004 2402.6 778.293 2397.03 778.293H2393.32V791.28ZM2393.32 810.761H2387.76V775.51C2390.54 774.583 2393.32 774.583 2397.96 774.583C2403.53 774.583 2407.24 775.51 2409.09 777.365C2410.95 779.221 2412.8 781.076 2412.8 784.787C2412.8 789.425 2410.02 792.208 2406.31 793.135C2409.09 794.063 2411.87 796.846 2411.87 801.484C2412.8 807.05 2413.73 808.905 2413.73 809.833H2408.16C2407.24 808.905 2406.31 805.195 2405.38 800.557C2404.45 795.918 2402.6 794.063 2397.96 794.063H2393.32V810.761ZM2399.81 765.306C2385.9 765.306 2374.77 777.365 2374.77 792.208C2374.77 807.05 2385.9 819.109 2400.74 819.109C2414.66 819.109 2425.79 807.05 2425.79 792.208C2424.86 777.365 2413.73 765.306 2399.81 765.306ZM2399.81 760.668C2417.44 760.668 2430.43 774.583 2430.43 792.208C2430.43 809.833 2416.51 823.748 2398.89 823.748C2381.26 823.748 2367.35 809.833 2367.35 792.208C2368.27 774.583 2382.19 760.668 2399.81 760.668Z" fill="black"/>
<defs>
<linearGradient id="paint0_linear_5811_184" x1="1978.06" y1="788.124" x2="1854.9" y2="-109.361" gradientUnits="userSpaceOnUse">
<stop stop-color="#0070B6"/>
<stop offset="1" stop-color="#1D2C5E"/>
</linearGradient>
<linearGradient id="paint1_linear_5811_184" x1="974.997" y1="600.062" x2="1274.47" y2="-293.747" gradientUnits="userSpaceOnUse">
<stop stop-color="#0070B6"/>
<stop offset="1" stop-color="#1D2C5E"/>
</linearGradient>
<linearGradient id="paint2_linear_5811_184" x1="1349.24" y1="822.511" x2="1335.87" y2="63.7792" gradientUnits="userSpaceOnUse">
<stop stop-color="#0070B6"/>
<stop offset="1" stop-color="#1D2C5E"/>
</linearGradient>
<linearGradient id="paint3_linear_5811_184" x1="1309.1" y1="747.416" x2="1304.24" y2="86.9994" gradientUnits="userSpaceOnUse">
<stop stop-color="#125D9E"/>
<stop offset="1" stop-color="#1D2C5E"/>
</linearGradient>
<linearGradient id="paint4_linear_5811_184" x1="4709.56" y1="-30.6987" x2="4680.15" y2="494.714" gradientUnits="userSpaceOnUse">
<stop stop-color="#125D9E"/>
<stop offset="1" stop-color="#1D2C5E"/>
</linearGradient>
<linearGradient id="paint5_linear_5811_184" x1="472.287" y1="-325.811" x2="695.327" y2="500.405" gradientUnits="userSpaceOnUse">
<stop stop-color="#105FA1"/>
<stop offset="1" stop-color="#1D2C5E"/>
</linearGradient>
<linearGradient id="paint6_linear_5811_184" x1="642.855" y1="-54.0536" x2="723.191" y2="476.424" gradientUnits="userSpaceOnUse">
<stop stop-color="#105FA1"/>
<stop offset="1" stop-color="#1D2C5E"/>
</linearGradient>
<linearGradient id="paint7_linear_5811_184" x1="-22.786" y1="457.265" x2="2480.37" y2="457.265" gradientUnits="userSpaceOnUse">
<stop stop-color="#3C5AA6"/>
<stop offset="0.933" stop-color="#2B73B9"/>
<stop offset="1" stop-color="#2A75BB"/>
</linearGradient>
<linearGradient id="paint8_linear_5811_184" x1="0.724095" y1="458.457" x2="2499.73" y2="458.457" gradientUnits="userSpaceOnUse">
<stop stop-color="#3C5AA6"/>
<stop offset="0.933" stop-color="#2B73B9"/>
<stop offset="1" stop-color="#2A75BB"/>
</linearGradient>
</defs>
</svg>
